<?xml version="1.0" standalone="no"?>
<!DOCTYPE svg PUBLIC "-//W3C//DTD SVG 20010904//EN"
 "http://www.w3.org/TR/2001/REC-SVG-20010904/DTD/svg10.dtd">
<svg version="1.0" xmlns="http://www.w3.org/2000/svg"
 width="512.000000pt" height="512.000000pt" viewBox="0 0 512.000000 512.000000"
 preserveAspectRatio="xMidYMid meet">

<g transform="translate(0.000000,512.000000) scale(0.100000,-0.100000)" fill="#FFFFFF" stroke="none">
<path d="M2330 5110 c-494 -48 -950 -230 -1350 -538 -195 -150 -448 -432 -594
-662 -63 -99 -186 -351 -230 -471 -49 -134 -102 -340 -128 -499 -31 -195 -31
-565 0 -760 45 -276 116 -498 237 -745 132 -269 269 -460 489 -681 221 -220
412 -357 681 -489 247 -121 469 -192 745 -237 195 -31 565 -31 760 0 276 45
498 116 745 237 269 132 460 269 681 489 220 221 357 412 489 681 88 179 132
296 180 476 63 240 78 371 78 649 0 278 -15 409 -78 649 -48 180 -92 297 -180
476 -132 269 -269 460 -489 681 -221 220 -412 357 -681 489 -246 121 -474 193
-740 235 -147 23 -475 34 -615 20z m556 -1476 c22 -9 53 -27 71 -40 40 -30
729 -841 763 -897 22 -37 25 -53 25 -137 0 -83 -3 -100 -25 -137 -34 -56 -723
-866 -764 -898 -71 -54 -169 -72 -262 -46 -86 23 -170 112 -195 206 -15 54 -6
140 20 195 12 25 86 122 166 215 l145 170 -628 5 -627 5 -51 27 c-116 61 -175
182 -152 310 17 93 68 162 152 206 l51 27 627 5 628 5 -145 170 c-175 205
-189 231 -190 340 0 70 4 86 30 134 35 63 92 115 149 135 56 20 164 20 212 0z"/>
</g>
</svg>
